<svg width="428" height="66" viewBox="0 0 428 66" fill="none" xmlns="http://www.w3.org/2000/svg">
<path d="M59.75 33.75V28.4925C59.75 28.125 60.125 27.75 60.5 27.75H63.5C63.875 27.75 64.25 28.125 64.25 28.5V33.75C64.25 33.9489 64.329 34.1397 64.4697 34.2803C64.6103 34.421 64.8011 34.5 65 34.5H71C71.1989 34.5 71.3897 34.421 71.5303 34.2803C71.671 34.1397 71.75 33.9489 71.75 33.75V23.25C71.7502 23.1514 71.7309 23.0538 71.6933 22.9627C71.6558 22.8716 71.6006 22.7888 71.531 22.719L69.5 20.6895V15.75C69.5 15.5511 69.421 15.3603 69.2803 15.2197C69.1397 15.079 68.9489 15 68.75 15H67.25C67.0511 15 66.8603 15.079 66.7197 15.2197C66.579 15.3603 66.5 15.5511 66.5 15.75V17.6895L62.531 13.719C62.4613 13.6492 62.3786 13.5937 62.2875 13.5559C62.1963 13.5181 62.0987 13.4987 62 13.4987C61.9014 13.4987 61.8037 13.5181 61.7126 13.5559C61.6214 13.5937 61.5387 13.6492 61.469 13.719L52.469 22.719C52.3994 22.7888 52.3442 22.8716 52.3067 22.9627C52.2691 23.0538 52.2498 23.1514 52.25 23.25V33.75C52.25 33.9489 52.329 34.1397 52.4697 34.2803C52.6103 34.421 52.8011 34.5 53 34.5H59C59.1989 34.5 59.3897 34.421 59.5303 34.2803C59.671 34.1397 59.75 33.9489 59.75 33.75Z" fill="#212529"/>
<path d="M48.7173 48V40.7273H50.0348V43.8061H53.4048V40.7273H54.7259V48H53.4048V44.9105H50.0348V48H48.7173ZM58.0812 48.1065C57.5485 48.1065 57.0869 47.9893 56.6962 47.755C56.3056 47.5206 56.0026 47.1927 55.7871 46.7713C55.5741 46.3499 55.4675 45.8575 55.4675 45.294C55.4675 44.7306 55.5741 44.237 55.7871 43.8132C56.0026 43.3894 56.3056 43.0604 56.6962 42.826C57.0869 42.5916 57.5485 42.4744 58.0812 42.4744C58.6138 42.4744 59.0755 42.5916 59.4661 42.826C59.8567 43.0604 60.1586 43.3894 60.3717 43.8132C60.5871 44.237 60.6948 44.7306 60.6948 45.294C60.6948 45.8575 60.5871 46.3499 60.3717 46.7713C60.1586 47.1927 59.8567 47.5206 59.4661 47.755C59.0755 47.9893 58.6138 48.1065 58.0812 48.1065ZM58.0883 47.0767C58.3771 47.0767 58.6186 46.9974 58.8127 46.8388C59.0068 46.6778 59.1513 46.4624 59.246 46.1925C59.343 45.9226 59.3915 45.6219 59.3915 45.2905C59.3915 44.9567 59.343 44.6548 59.246 44.3849C59.1513 44.1127 59.0068 43.8961 58.8127 43.7351C58.6186 43.5741 58.3771 43.4936 58.0883 43.4936C57.7924 43.4936 57.5461 43.5741 57.3496 43.7351C57.1555 43.8961 57.0099 44.1127 56.9129 44.3849C56.8182 44.6548 56.7708 44.9567 56.7708 45.2905C56.7708 45.6219 56.8182 45.9226 56.9129 46.1925C57.0099 46.4624 57.1555 46.6778 57.3496 46.8388C57.5461 46.9974 57.7924 47.0767 58.0883 47.0767ZM61.3859 48V42.5455H62.6146V43.4723H62.6785C62.7922 43.1598 62.9804 42.916 63.2431 42.7408C63.5059 42.5632 63.8196 42.4744 64.1842 42.4744C64.5535 42.4744 64.8648 42.5644 65.1181 42.7443C65.3738 42.9219 65.5538 43.1645 65.6579 43.4723H65.7147C65.8355 43.1693 66.0391 42.9278 66.3255 42.7479C66.6144 42.5656 66.9565 42.4744 67.3518 42.4744C67.8537 42.4744 68.2633 42.633 68.5805 42.9503C68.8977 43.2675 69.0564 43.7304 69.0564 44.3388V48H67.7673V44.5376C67.7673 44.1991 67.6773 43.9517 67.4974 43.7955C67.3175 43.6368 67.0973 43.5575 66.8369 43.5575C66.5268 43.5575 66.2841 43.6546 66.1089 43.8487C65.9361 44.0405 65.8497 44.2902 65.8497 44.598V48H64.589V44.4844C64.589 44.2027 64.5038 43.9777 64.3333 43.8097C64.1653 43.6416 63.9451 43.5575 63.6728 43.5575C63.4882 43.5575 63.3201 43.6049 63.1686 43.6996C63.0171 43.7919 62.8963 43.9233 62.8064 44.0938C62.7164 44.2618 62.6714 44.4583 62.6714 44.6832V48H61.3859ZM72.3753 48.1065C71.8284 48.1065 71.3561 47.9929 70.9584 47.7656C70.563 47.536 70.2588 47.2116 70.0457 46.7926C69.8327 46.3712 69.7261 45.8752 69.7261 45.3047C69.7261 44.7436 69.8327 44.2512 70.0457 43.8274C70.2612 43.4013 70.5618 43.0698 70.9477 42.8331C71.3336 42.594 71.787 42.4744 72.3078 42.4744C72.644 42.4744 72.9612 42.5289 73.2595 42.6378C73.5602 42.7443 73.8253 42.91 74.055 43.1349C74.287 43.3598 74.4693 43.6463 74.6018 43.9943C74.7344 44.34 74.8007 44.7519 74.8007 45.2301V45.6243H70.3298V44.7578H73.5685C73.5661 44.5116 73.5128 44.2926 73.4087 44.1009C73.3045 43.9067 73.1589 43.754 72.9719 43.6428C72.7872 43.5315 72.5718 43.4759 72.3256 43.4759C72.0628 43.4759 71.832 43.5398 71.6331 43.6676C71.4342 43.7931 71.2792 43.9588 71.1679 44.1648C71.059 44.3684 71.0034 44.5921 71.001 44.8359V45.5923C71.001 45.9096 71.059 46.1818 71.175 46.4091C71.291 46.634 71.4532 46.8068 71.6615 46.9276C71.8698 47.0459 72.1137 47.1051 72.393 47.1051C72.5801 47.1051 72.7493 47.0791 72.9009 47.027C73.0524 46.9725 73.1838 46.8932 73.295 46.7891C73.4063 46.6849 73.4903 46.5559 73.5472 46.402L74.7474 46.5369C74.6717 46.8542 74.5273 47.1312 74.3142 47.3679C74.1035 47.6023 73.8336 47.7846 73.5045 47.9148C73.1755 48.0426 72.7991 48.1065 72.3753 48.1065Z" fill="#152536"/>
<path d="M132.427 43.1811H131.099C131.061 42.9633 130.991 42.7704 130.89 42.6023C130.788 42.4318 130.661 42.2874 130.51 42.169C130.358 42.0507 130.185 41.9619 129.991 41.9027C129.799 41.8411 129.592 41.8104 129.37 41.8104C128.974 41.8104 128.624 41.9098 128.319 42.1087C128.013 42.3052 127.774 42.594 127.601 42.9751C127.428 43.3539 127.342 43.8168 127.342 44.3636C127.342 44.92 127.428 45.3887 127.601 45.7699C127.776 46.1487 128.016 46.4351 128.319 46.6293C128.624 46.821 128.973 46.9169 129.366 46.9169C129.584 46.9169 129.788 46.8885 129.977 46.8317C130.169 46.7725 130.34 46.6861 130.492 46.5724C130.646 46.4588 130.775 46.3191 130.879 46.1534C130.985 45.9877 131.059 45.7983 131.099 45.5852L132.427 45.5923C132.378 45.938 132.27 46.2623 132.104 46.5653C131.941 46.8684 131.726 47.1359 131.461 47.3679C131.196 47.5975 130.886 47.7775 130.531 47.9077C130.176 48.0355 129.782 48.0994 129.348 48.0994C128.709 48.0994 128.139 47.9515 127.637 47.6555C127.135 47.3596 126.74 46.9323 126.451 46.3736C126.162 45.8149 126.017 45.1449 126.017 44.3636C126.017 43.58 126.163 42.91 126.454 42.3537C126.745 41.795 127.142 41.3677 127.644 41.0717C128.146 40.7758 128.714 40.6278 129.348 40.6278C129.753 40.6278 130.13 40.6847 130.478 40.7983C130.826 40.9119 131.136 41.0788 131.408 41.299C131.68 41.5168 131.904 41.7843 132.079 42.1016C132.257 42.4164 132.373 42.7763 132.427 43.1811ZM134.747 48.1101C134.401 48.1101 134.09 48.0485 133.813 47.9254C133.538 47.8 133.32 47.6153 133.159 47.3714C133.001 47.1276 132.921 46.8269 132.921 46.4695C132.921 46.1617 132.978 45.9072 133.092 45.706C133.205 45.5047 133.36 45.3438 133.557 45.223C133.753 45.1023 133.975 45.0111 134.221 44.9496C134.47 44.8857 134.726 44.8395 134.992 44.8111C135.311 44.7779 135.57 44.7483 135.769 44.7223C135.968 44.6939 136.113 44.6513 136.202 44.5945C136.295 44.5353 136.341 44.4441 136.341 44.321V44.2997C136.341 44.0322 136.262 43.825 136.103 43.6783C135.944 43.5315 135.716 43.4581 135.418 43.4581C135.103 43.4581 134.853 43.5268 134.668 43.6641C134.486 43.8014 134.363 43.9635 134.299 44.1506L133.099 43.9801C133.193 43.6487 133.35 43.3717 133.568 43.1491C133.785 42.9242 134.052 42.7562 134.367 42.6449C134.681 42.5312 135.029 42.4744 135.411 42.4744C135.673 42.4744 135.935 42.5052 136.195 42.5668C136.456 42.6283 136.694 42.7301 136.909 42.8722C137.125 43.0118 137.297 43.2024 137.428 43.4439C137.56 43.6854 137.626 43.9872 137.626 44.3494V48H136.391V47.2507H136.348C136.27 47.4022 136.16 47.5443 136.018 47.6768C135.878 47.8071 135.702 47.9124 135.489 47.9929C135.278 48.071 135.031 48.1101 134.747 48.1101ZM135.08 47.1655C135.338 47.1655 135.562 47.1146 135.751 47.0128C135.941 46.9086 136.086 46.7713 136.188 46.6009C136.292 46.4304 136.345 46.2446 136.345 46.0433V45.4006C136.304 45.4337 136.236 45.4645 136.139 45.4929C136.044 45.5213 135.937 45.5462 135.819 45.5675C135.701 45.5888 135.583 45.6077 135.467 45.6243C135.351 45.6409 135.251 45.6551 135.166 45.6669C134.974 45.6929 134.802 45.7356 134.651 45.7947C134.499 45.8539 134.38 45.9368 134.292 46.0433C134.204 46.1475 134.161 46.2824 134.161 46.4482C134.161 46.6849 134.247 46.8636 134.42 46.9844C134.593 47.1051 134.813 47.1655 135.08 47.1655ZM138.519 48V42.5455H139.766V43.4545H139.822C139.922 43.1397 140.092 42.897 140.334 42.7266C140.578 42.5537 140.856 42.4673 141.168 42.4673C141.239 42.4673 141.319 42.4709 141.406 42.478C141.496 42.4827 141.571 42.491 141.63 42.5028V43.6854C141.575 43.6664 141.489 43.6499 141.371 43.6357C141.255 43.6191 141.142 43.6108 141.033 43.6108C140.799 43.6108 140.588 43.6617 140.401 43.7635C140.217 43.8629 140.071 44.0014 139.964 44.179C139.858 44.3565 139.805 44.5613 139.805 44.7933V48H138.519ZM145.101 42.5455V43.5398H141.965V42.5455H145.101ZM142.739 41.2386H144.025V46.3594C144.025 46.5322 144.051 46.6648 144.103 46.7571C144.157 46.8471 144.228 46.9086 144.316 46.9418C144.403 46.9749 144.5 46.9915 144.607 46.9915C144.688 46.9915 144.761 46.9856 144.827 46.9737C144.896 46.9619 144.948 46.9512 144.983 46.9418L145.2 47.9467C145.131 47.9704 145.033 47.9964 144.905 48.0249C144.78 48.0533 144.626 48.0698 144.444 48.0746C144.122 48.084 143.832 48.0355 143.574 47.929C143.316 47.8201 143.111 47.652 142.959 47.4247C142.81 47.1974 142.737 46.9134 142.739 46.5724V41.2386Z" fill="#152536"/>
<path d="M135 13.5C135.995 13.5 136.948 13.8951 137.652 14.5983C138.355 15.3016 138.75 16.2554 138.75 17.25V18H131.25V17.25C131.25 16.2554 131.645 15.3016 132.348 14.5983C133.052 13.8951 134.005 13.5 135 13.5ZM140.25 18V17.25C140.25 15.8576 139.697 14.5223 138.712 13.5377C137.728 12.5531 136.392 12 135 12C133.608 12 132.272 12.5531 131.288 13.5377C130.303 14.5223 129.75 15.8576 129.75 17.25V18H124.5V33C124.5 33.7956 124.816 34.5587 125.379 35.1213C125.941 35.6839 126.704 36 127.5 36H142.5C143.296 36 144.059 35.6839 144.621 35.1213C145.184 34.5587 145.5 33.7956 145.5 33V18H140.25ZM126 19.5H144V33C144 33.3978 143.842 33.7794 143.561 34.0607C143.279 34.342 142.898 34.5 142.5 34.5H127.5C127.102 34.5 126.721 34.342 126.439 34.0607C126.158 33.7794 126 33.3978 126 33V19.5Z" fill="#212529"/>
<path d="M202.134 44.3636C202.134 45.1473 201.987 45.8184 201.694 46.3771C201.402 46.9335 201.005 47.3596 200.5 47.6555C199.998 47.9515 199.429 48.0994 198.792 48.0994C198.155 48.0994 197.585 47.9515 197.081 47.6555C196.579 47.3572 196.181 46.9299 195.887 46.3736C195.596 45.8149 195.451 45.1449 195.451 44.3636C195.451 43.58 195.596 42.91 195.887 42.3537C196.181 41.795 196.579 41.3677 197.081 41.0717C197.585 40.7758 198.155 40.6278 198.792 40.6278C199.429 40.6278 199.998 40.7758 200.5 41.0717C201.005 41.3677 201.402 41.795 201.694 42.3537C201.987 42.91 202.134 43.58 202.134 44.3636ZM200.809 44.3636C200.809 43.812 200.723 43.3468 200.55 42.968C200.38 42.5869 200.143 42.2992 199.84 42.1051C199.537 41.9086 199.188 41.8104 198.792 41.8104C198.397 41.8104 198.048 41.9086 197.745 42.1051C197.442 42.2992 197.204 42.5869 197.031 42.968C196.86 43.3468 196.775 43.812 196.775 44.3636C196.775 44.9152 196.86 45.3816 197.031 45.7628C197.204 46.1416 197.442 46.4292 197.745 46.6257C198.048 46.8198 198.397 46.9169 198.792 46.9169C199.188 46.9169 199.537 46.8198 199.84 46.6257C200.143 46.4292 200.38 46.1416 200.55 45.7628C200.723 45.3816 200.809 44.9152 200.809 44.3636ZM202.923 48V42.5455H204.169V43.4545H204.226C204.325 43.1397 204.496 42.897 204.737 42.7266C204.981 42.5537 205.259 42.4673 205.572 42.4673C205.643 42.4673 205.722 42.4709 205.81 42.478C205.9 42.4827 205.974 42.491 206.033 42.5028V43.6854C205.979 43.6664 205.893 43.6499 205.774 43.6357C205.658 43.6191 205.546 43.6108 205.437 43.6108C205.202 43.6108 204.992 43.6617 204.805 43.7635C204.62 43.8629 204.474 44.0014 204.368 44.179C204.261 44.3565 204.208 44.5613 204.208 44.7933V48H202.923ZM208.287 48.0959C207.858 48.0959 207.475 47.9858 207.136 47.7656C206.798 47.5455 206.53 47.2259 206.334 46.8068C206.137 46.3878 206.039 45.8788 206.039 45.2798C206.039 44.6738 206.139 44.1624 206.337 43.7457C206.539 43.3267 206.81 43.0107 207.151 42.7976C207.492 42.5821 207.872 42.4744 208.291 42.4744C208.61 42.4744 208.873 42.5289 209.079 42.6378C209.285 42.7443 209.448 42.8733 209.569 43.0249C209.69 43.174 209.783 43.3149 209.85 43.4474H209.903V40.7273H211.192V48H209.928V47.1406H209.85C209.783 47.2732 209.687 47.4141 209.562 47.5632C209.436 47.71 209.271 47.8355 209.065 47.9396C208.859 48.0438 208.6 48.0959 208.287 48.0959ZM208.646 47.0412C208.918 47.0412 209.15 46.9678 209.342 46.821C209.533 46.6719 209.679 46.4647 209.778 46.1996C209.878 45.9344 209.928 45.6255 209.928 45.2727C209.928 44.92 209.878 44.6134 209.778 44.353C209.681 44.0926 209.537 43.8902 209.345 43.7457C209.156 43.6013 208.923 43.5291 208.646 43.5291C208.359 43.5291 208.12 43.6037 207.928 43.7528C207.737 43.902 207.592 44.108 207.495 44.3707C207.398 44.6335 207.35 44.9342 207.35 45.2727C207.35 45.6136 207.398 45.9179 207.495 46.1854C207.595 46.4505 207.74 46.66 207.932 46.8139C208.126 46.9654 208.364 47.0412 208.646 47.0412ZM214.576 48.1065C214.03 48.1065 213.557 47.9929 213.16 47.7656C212.764 47.536 212.46 47.2116 212.247 46.7926C212.034 46.3712 211.927 45.8752 211.927 45.3047C211.927 44.7436 212.034 44.2512 212.247 43.8274C212.462 43.4013 212.763 43.0698 213.149 42.8331C213.535 42.594 213.988 42.4744 214.509 42.4744C214.845 42.4744 215.162 42.5289 215.461 42.6378C215.761 42.7443 216.027 42.91 216.256 43.1349C216.488 43.3598 216.67 43.6463 216.803 43.9943C216.936 44.34 217.002 44.7519 217.002 45.2301V45.6243H212.531V44.7578H215.77C215.767 44.5116 215.714 44.2926 215.61 44.1009C215.506 43.9067 215.36 43.754 215.173 43.6428C214.988 43.5315 214.773 43.4759 214.527 43.4759C214.264 43.4759 214.033 43.5398 213.834 43.6676C213.635 43.7931 213.48 43.9588 213.369 44.1648C213.26 44.3684 213.205 44.5921 213.202 44.8359V45.5923C213.202 45.9096 213.26 46.1818 213.376 46.4091C213.492 46.634 213.654 46.8068 213.863 46.9276C214.071 47.0459 214.315 47.1051 214.594 47.1051C214.781 47.1051 214.951 47.0791 215.102 47.027C215.254 46.9725 215.385 46.8932 215.496 46.7891C215.607 46.6849 215.692 46.5559 215.748 46.402L216.949 46.5369C216.873 46.8542 216.728 47.1312 216.515 47.3679C216.305 47.6023 216.035 47.7846 215.706 47.9148C215.377 48.0426 215 48.1065 214.576 48.1065ZM217.689 48V42.5455H218.936V43.4545H218.993C219.092 43.1397 219.263 42.897 219.504 42.7266C219.748 42.5537 220.026 42.4673 220.339 42.4673C220.41 42.4673 220.489 42.4709 220.576 42.478C220.666 42.4827 220.741 42.491 220.8 42.5028V43.6854C220.746 43.6664 220.659 43.6499 220.541 43.6357C220.425 43.6191 220.313 43.6108 220.204 43.6108C219.969 43.6108 219.759 43.6617 219.572 43.7635C219.387 43.8629 219.241 44.0014 219.135 44.179C219.028 44.3565 218.975 44.5613 218.975 44.7933V48H217.689ZM225.565 43.9872L224.393 44.1151C224.36 43.9967 224.302 43.8854 224.219 43.7812C224.139 43.6771 224.03 43.593 223.893 43.5291C223.755 43.4652 223.587 43.4332 223.388 43.4332C223.121 43.4332 222.896 43.4912 222.714 43.6072C222.534 43.7232 222.445 43.8736 222.447 44.0582C222.445 44.2169 222.503 44.3459 222.621 44.4453C222.742 44.5447 222.941 44.6264 223.218 44.6903L224.148 44.8892C224.665 45.0005 225.048 45.1768 225.299 45.4183C225.552 45.6598 225.68 45.9759 225.683 46.3665C225.68 46.7098 225.58 47.0128 225.381 47.2756C225.184 47.536 224.911 47.7396 224.56 47.8864C224.21 48.0331 223.808 48.1065 223.353 48.1065C222.685 48.1065 222.148 47.9669 221.741 47.6875C221.334 47.4058 221.091 47.014 221.013 46.5121L222.266 46.3913C222.323 46.6375 222.444 46.8234 222.629 46.9489C222.813 47.0743 223.054 47.1371 223.349 47.1371C223.655 47.1371 223.9 47.0743 224.085 46.9489C224.272 46.8234 224.365 46.6683 224.365 46.4837C224.365 46.3274 224.305 46.1984 224.184 46.0966C224.066 45.9948 223.881 45.9167 223.63 45.8622L222.7 45.6669C222.176 45.558 221.789 45.3745 221.538 45.1165C221.287 44.8561 221.163 44.527 221.165 44.1293C221.163 43.7931 221.254 43.5019 221.439 43.2557C221.626 43.0071 221.885 42.8153 222.217 42.6804C222.55 42.5431 222.935 42.4744 223.371 42.4744C224.01 42.4744 224.513 42.6106 224.88 42.8828C225.249 43.1551 225.478 43.5232 225.565 43.9872Z" fill="#152536"/>
<path d="M198 15.75C198 15.5511 198.079 15.3603 198.22 15.2197C198.36 15.079 198.551 15 198.75 15H201C201.167 15 201.33 15.056 201.462 15.159C201.593 15.262 201.687 15.4062 201.727 15.5685L202.335 18H219.75C219.864 18 219.976 18.026 220.079 18.076C220.181 18.1259 220.271 18.1986 220.341 18.2884C220.411 18.3781 220.46 18.4827 220.483 18.5942C220.507 18.7056 220.505 18.821 220.477 18.9315L218.227 27.9315C218.187 28.0938 218.093 28.238 217.962 28.341C217.83 28.444 217.667 28.5 217.5 28.5H204C203.833 28.5 203.67 28.444 203.538 28.341C203.407 28.238 203.313 28.0938 203.273 27.9315L200.415 16.5H198.75C198.551 16.5 198.36 16.421 198.22 16.2803C198.079 16.1397 198 15.9489 198 15.75ZM202.71 19.5L204.585 27H216.915L218.79 19.5H202.71ZM205.5 31.5C205.102 31.5 204.721 31.658 204.439 31.9393C204.158 32.2206 204 32.6022 204 33C204 33.3978 204.158 33.7794 204.439 34.0607C204.721 34.342 205.102 34.5 205.5 34.5C205.898 34.5 206.279 34.342 206.561 34.0607C206.842 33.7794 207 33.3978 207 33C207 32.6022 206.842 32.2206 206.561 31.9393C206.279 31.658 205.898 31.5 205.5 31.5ZM202.5 33C202.5 32.2044 202.816 31.4413 203.379 30.8787C203.941 30.3161 204.704 30 205.5 30C206.296 30 207.059 30.3161 207.621 30.8787C208.184 31.4413 208.5 32.2044 208.5 33C208.5 33.7956 208.184 34.5587 207.621 35.1213C207.059 35.6839 206.296 36 205.5 36C204.704 36 203.941 35.6839 203.379 35.1213C202.816 34.5587 202.5 33.7956 202.5 33ZM216 31.5C215.602 31.5 215.221 31.658 214.939 31.9393C214.658 32.2206 214.5 32.6022 214.5 33C214.5 33.3978 214.658 33.7794 214.939 34.0607C215.221 34.342 215.602 34.5 216 34.5C216.398 34.5 216.779 34.342 217.061 34.0607C217.342 33.7794 217.5 33.3978 217.5 33C217.5 32.6022 217.342 32.2206 217.061 31.9393C216.779 31.658 216.398 31.5 216 31.5ZM213 33C213 32.2044 213.316 31.4413 213.879 30.8787C214.441 30.3161 215.204 30 216 30C216.796 30 217.559 30.3161 218.121 30.8787C218.684 31.4413 219 32.2044 219 33C219 33.7956 218.684 34.5587 218.121 35.1213C217.559 35.6839 216.796 36 216 36C215.204 36 214.441 35.6839 213.879 35.1213C213.316 34.5587 213 33.7956 213 33Z" fill="#212529"/>
<path d="M275.65 48L273.598 40.7273H275.015L276.325 46.0717H276.392L277.792 40.7273H279.081L280.483 46.0753H280.547L281.858 40.7273H283.275L281.222 48H279.922L278.466 42.897H278.409L276.95 48H275.65ZM284.744 48.1101C284.399 48.1101 284.087 48.0485 283.81 47.9254C283.536 47.8 283.318 47.6153 283.157 47.3714C282.998 47.1276 282.919 46.8269 282.919 46.4695C282.919 46.1617 282.976 45.9072 283.089 45.706C283.203 45.5047 283.358 45.3438 283.555 45.223C283.751 45.1023 283.972 45.0111 284.219 44.9496C284.467 44.8857 284.724 44.8395 284.989 44.8111C285.309 44.7779 285.568 44.7483 285.767 44.7223C285.966 44.6939 286.11 44.6513 286.2 44.5945C286.292 44.5353 286.339 44.4441 286.339 44.321V44.2997C286.339 44.0322 286.259 43.825 286.101 43.6783C285.942 43.5315 285.714 43.4581 285.415 43.4581C285.1 43.4581 284.851 43.5268 284.666 43.6641C284.484 43.8014 284.361 43.9635 284.297 44.1506L283.096 43.9801C283.191 43.6487 283.347 43.3717 283.565 43.1491C283.783 42.9242 284.049 42.7562 284.364 42.6449C284.679 42.5312 285.027 42.4744 285.408 42.4744C285.671 42.4744 285.933 42.5052 286.193 42.5668C286.453 42.6283 286.691 42.7301 286.907 42.8722C287.122 43.0118 287.295 43.2024 287.425 43.4439C287.558 43.6854 287.624 43.9872 287.624 44.3494V48H286.388V47.2507H286.346C286.268 47.4022 286.158 47.5443 286.015 47.6768C285.876 47.8071 285.699 47.9124 285.486 47.9929C285.276 48.071 285.028 48.1101 284.744 48.1101ZM285.078 47.1655C285.336 47.1655 285.56 47.1146 285.749 47.0128C285.939 46.9086 286.084 46.7713 286.186 46.6009C286.29 46.4304 286.342 46.2446 286.342 46.0433V45.4006C286.302 45.4337 286.233 45.4645 286.136 45.4929C286.042 45.5213 285.935 45.5462 285.817 45.5675C285.698 45.5888 285.581 45.6077 285.465 45.6243C285.349 45.6409 285.248 45.6551 285.163 45.6669C284.971 45.6929 284.8 45.7356 284.648 45.7947C284.497 45.8539 284.377 45.9368 284.29 46.0433C284.202 46.1475 284.158 46.2824 284.158 46.4482C284.158 46.6849 284.245 46.8636 284.417 46.9844C284.59 47.1051 284.81 47.1655 285.078 47.1655ZM289.802 40.7273V48H288.517V40.7273H289.802ZM292.01 40.7273V48H290.724V40.7273H292.01ZM295.346 48.1065C294.8 48.1065 294.327 47.9929 293.929 47.7656C293.534 47.536 293.23 47.2116 293.017 46.7926C292.804 46.3712 292.697 45.8752 292.697 45.3047C292.697 44.7436 292.804 44.2512 293.017 43.8274C293.232 43.4013 293.533 43.0698 293.919 42.8331C294.305 42.594 294.758 42.4744 295.279 42.4744C295.615 42.4744 295.932 42.5289 296.231 42.6378C296.531 42.7443 296.796 42.91 297.026 43.1349C297.258 43.3598 297.44 43.6463 297.573 43.9943C297.706 44.34 297.772 44.7519 297.772 45.2301V45.6243H293.301V44.7578H296.54C296.537 44.5116 296.484 44.2926 296.38 44.1009C296.276 43.9067 296.13 43.754 295.943 43.6428C295.758 43.5315 295.543 43.4759 295.297 43.4759C295.034 43.4759 294.803 43.5398 294.604 43.6676C294.405 43.7931 294.25 43.9588 294.139 44.1648C294.03 44.3684 293.974 44.5921 293.972 44.8359V45.5923C293.972 45.9096 294.03 46.1818 294.146 46.4091C294.262 46.634 294.424 46.8068 294.633 46.9276C294.841 47.0459 295.085 47.1051 295.364 47.1051C295.551 47.1051 295.72 47.0791 295.872 47.027C296.023 46.9725 296.155 46.8932 296.266 46.7891C296.377 46.6849 296.461 46.5559 296.518 46.402L297.719 46.5369C297.643 46.8542 297.498 47.1312 297.285 47.3679C297.075 47.6023 296.805 47.7846 296.476 47.9148C296.147 48.0426 295.77 48.1065 295.346 48.1065ZM301.183 42.5455V43.5398H298.047V42.5455H301.183ZM298.822 41.2386H300.107V46.3594C300.107 46.5322 300.133 46.6648 300.185 46.7571C300.24 46.8471 300.311 46.9086 300.398 46.9418C300.486 46.9749 300.583 46.9915 300.689 46.9915C300.77 46.9915 300.843 46.9856 300.91 46.9737C300.978 46.9619 301.03 46.9512 301.066 46.9418L301.282 47.9467C301.214 47.9704 301.116 47.9964 300.988 48.0249C300.862 48.0533 300.708 48.0698 300.526 48.0746C300.204 48.084 299.914 48.0355 299.656 47.929C299.398 47.8201 299.193 47.652 299.042 47.4247C298.893 47.1974 298.819 46.9134 298.822 46.5724V41.2386Z" fill="#152536"/>
<g clip-path="url(#clip0_1_2426)">
<path d="M293.204 12.489C293.536 12.4061 293.882 12.3998 294.216 12.4706C294.55 12.5414 294.864 12.6874 295.134 12.8977C295.403 13.1079 295.621 13.3768 295.772 13.6839C295.922 13.9909 296 14.3282 296 14.67V16.5H296.75C297.347 16.5 297.919 16.7371 298.341 17.159C298.763 17.581 299 18.1533 299 18.75V32.25C299 32.8467 298.763 33.419 298.341 33.841C297.919 34.263 297.347 34.5 296.75 34.5H277.25C276.653 34.5 276.081 34.263 275.659 33.841C275.237 33.419 275 32.8467 275 32.25V18.75C275 18.1708 275.223 17.6138 275.623 17.195C276.023 16.7762 276.569 16.5278 277.148 16.5015L293.204 12.489ZM283.343 16.5H294.5V14.67C294.5 14.5562 294.474 14.444 294.424 14.3418C294.373 14.2396 294.301 14.1501 294.211 14.0802C294.121 14.0102 294.017 13.9616 293.905 13.938C293.794 13.9144 293.679 13.9165 293.569 13.944L283.343 16.5ZM277.25 18C277.051 18 276.86 18.079 276.72 18.2197C276.579 18.3603 276.5 18.5511 276.5 18.75V32.25C276.5 32.4489 276.579 32.6397 276.72 32.7803C276.86 32.921 277.051 33 277.25 33H296.75C296.949 33 297.14 32.921 297.28 32.7803C297.421 32.6397 297.5 32.4489 297.5 32.25V18.75C297.5 18.5511 297.421 18.3603 297.28 18.2197C297.14 18.079 296.949 18 296.75 18H277.25Z" fill="#212529"/>
</g>
<path d="M349.831 48V40.7273H352.559C353.117 40.7273 353.586 40.8314 353.965 41.0398C354.346 41.2481 354.634 41.5346 354.828 41.8991C355.024 42.2614 355.123 42.6733 355.123 43.1349C355.123 43.6013 355.024 44.0156 354.828 44.3778C354.631 44.7401 354.341 45.0253 353.958 45.2337C353.574 45.4396 353.102 45.5426 352.541 45.5426H350.733V44.4595H352.363C352.69 44.4595 352.958 44.4027 353.166 44.2891C353.374 44.1754 353.528 44.0192 353.628 43.8203C353.729 43.6214 353.78 43.393 353.78 43.1349C353.78 42.8769 353.729 42.6496 353.628 42.4531C353.528 42.2566 353.373 42.1039 353.162 41.995C352.954 41.8838 352.685 41.8281 352.356 41.8281H351.149V48H349.831ZM355.81 48V42.5455H357.057V43.4545H357.113C357.213 43.1397 357.383 42.897 357.625 42.7266C357.869 42.5537 358.147 42.4673 358.459 42.4673C358.53 42.4673 358.61 42.4709 358.697 42.478C358.787 42.4827 358.862 42.491 358.921 42.5028V43.6854C358.866 43.6664 358.78 43.6499 358.662 43.6357C358.546 43.6191 358.433 43.6108 358.324 43.6108C358.09 43.6108 357.879 43.6617 357.692 43.7635C357.508 43.8629 357.362 44.0014 357.255 44.179C357.149 44.3565 357.096 44.5613 357.096 44.7933V48H355.81ZM361.53 48.1065C360.997 48.1065 360.535 47.9893 360.145 47.755C359.754 47.5206 359.451 47.1927 359.236 46.7713C359.023 46.3499 358.916 45.8575 358.916 45.294C358.916 44.7306 359.023 44.237 359.236 43.8132C359.451 43.3894 359.754 43.0604 360.145 42.826C360.535 42.5916 360.997 42.4744 361.53 42.4744C362.062 42.4744 362.524 42.5916 362.915 42.826C363.305 43.0604 363.607 43.3894 363.82 43.8132C364.036 44.237 364.143 44.7306 364.143 45.294C364.143 45.8575 364.036 46.3499 363.82 46.7713C363.607 47.1927 363.305 47.5206 362.915 47.755C362.524 47.9893 362.062 48.1065 361.53 48.1065ZM361.537 47.0767C361.826 47.0767 362.067 46.9974 362.261 46.8388C362.455 46.6778 362.6 46.4624 362.694 46.1925C362.791 45.9226 362.84 45.6219 362.84 45.2905C362.84 44.9567 362.791 44.6548 362.694 44.3849C362.6 44.1127 362.455 43.8961 362.261 43.7351C362.067 43.5741 361.826 43.4936 361.537 43.4936C361.241 43.4936 360.995 43.5741 360.798 43.7351C360.604 43.8961 360.458 44.1127 360.361 44.3849C360.267 44.6548 360.219 44.9567 360.219 45.2905C360.219 45.6219 360.267 45.9226 360.361 46.1925C360.458 46.4624 360.604 46.6778 360.798 46.8388C360.995 46.9974 361.241 47.0767 361.537 47.0767ZM367.597 42.5455V43.5398H364.373V42.5455H367.597ZM365.179 48V42.0305C365.179 41.6636 365.255 41.3582 365.406 41.1143C365.56 40.8705 365.766 40.6882 366.024 40.5675C366.282 40.4467 366.568 40.3864 366.883 40.3864C367.106 40.3864 367.304 40.4041 367.476 40.4396C367.649 40.4751 367.777 40.5071 367.86 40.5355L367.604 41.5298C367.55 41.5133 367.481 41.4967 367.398 41.4801C367.315 41.4612 367.223 41.4517 367.121 41.4517C366.882 41.4517 366.713 41.5097 366.613 41.6257C366.516 41.7393 366.468 41.9027 366.468 42.1158V48H365.179ZM368.204 48V42.5455H369.489V48H368.204ZM368.85 41.7713C368.647 41.7713 368.471 41.7038 368.325 41.5689C368.178 41.4316 368.104 41.267 368.104 41.0753C368.104 40.8812 368.178 40.7166 368.325 40.5817C368.471 40.4444 368.647 40.3757 368.85 40.3757C369.056 40.3757 369.231 40.4444 369.376 40.5817C369.523 40.7166 369.596 40.8812 369.596 41.0753C369.596 41.267 369.523 41.4316 369.376 41.5689C369.231 41.7038 369.056 41.7713 368.85 41.7713ZM371.697 40.7273V48H370.411V40.7273H371.697ZM375.033 48.1065C374.487 48.1065 374.014 47.9929 373.617 47.7656C373.221 47.536 372.917 47.2116 372.704 46.7926C372.491 46.3712 372.384 45.8752 372.384 45.3047C372.384 44.7436 372.491 44.2512 372.704 43.8274C372.919 43.4013 373.22 43.0698 373.606 42.8331C373.992 42.594 374.445 42.4744 374.966 42.4744C375.302 42.4744 375.619 42.5289 375.918 42.6378C376.218 42.7443 376.484 42.91 376.713 43.1349C376.945 43.3598 377.127 43.6463 377.26 43.9943C377.393 44.34 377.459 44.7519 377.459 45.2301V45.6243H372.988V44.7578H376.227C376.224 44.5116 376.171 44.2926 376.067 44.1009C375.963 43.9067 375.817 43.754 375.63 43.6428C375.445 43.5315 375.23 43.4759 374.984 43.4759C374.721 43.4759 374.49 43.5398 374.291 43.6676C374.092 43.7931 373.937 43.9588 373.826 44.1648C373.717 44.3684 373.662 44.5921 373.659 44.8359V45.5923C373.659 45.9096 373.717 46.1818 373.833 46.4091C373.949 46.634 374.111 46.8068 374.32 46.9276C374.528 47.0459 374.772 47.1051 375.051 47.1051C375.238 47.1051 375.408 47.0791 375.559 47.027C375.711 46.9725 375.842 46.8932 375.953 46.7891C376.064 46.6849 376.149 46.5559 376.205 46.402L377.406 46.5369C377.33 46.8542 377.185 47.1312 376.972 47.3679C376.762 47.6023 376.492 47.7846 376.163 47.9148C375.834 48.0426 375.457 48.1065 375.033 48.1065Z" fill="#152536"/>
<path d="M363 24C364.193 24 365.338 23.5259 366.182 22.682C367.026 21.8381 367.5 20.6935 367.5 19.5C367.5 18.3065 367.026 17.1619 366.182 16.318C365.338 15.4741 364.193 15 363 15C361.807 15 360.662 15.4741 359.818 16.318C358.974 17.1619 358.5 18.3065 358.5 19.5C358.5 20.6935 358.974 21.8381 359.818 22.682C360.662 23.5259 361.807 24 363 24ZM366 19.5C366 20.2956 365.684 21.0587 365.121 21.6213C364.559 22.1839 363.796 22.5 363 22.5C362.204 22.5 361.441 22.1839 360.879 21.6213C360.316 21.0587 360 20.2956 360 19.5C360 18.7044 360.316 17.9413 360.879 17.3787C361.441 16.8161 362.204 16.5 363 16.5C363.796 16.5 364.559 16.8161 365.121 17.3787C365.684 17.9413 366 18.7044 366 19.5ZM372 31.5C372 33 370.5 33 370.5 33H355.5C355.5 33 354 33 354 31.5C354 30 355.5 25.5 363 25.5C370.5 25.5 372 30 372 31.5ZM370.5 31.494C370.499 31.125 370.269 30.015 369.252 28.998C368.274 28.02 366.434 27 363 27C359.565 27 357.726 28.02 356.748 28.998C355.731 30.015 355.503 31.125 355.5 31.494H370.5Z" fill="#212529"/>
<defs>
<clipPath id="clip0_1_2426">
<rect width="24" height="24" fill="white" transform="translate(275 12)"/>
</clipPath>
</defs>
</svg>
